# xmcd
#
# Track frame offsets:
#	151
#	13596
#	28716
#	44168
#
# Disc length: 777 seconds
#
# Revision: 0
# Processed by: cddbd v1.5.2PL0 Copyright (c) Steve Scherf et al.
# Submitted via: audiograbber 1.83.01
#
DISCID=2e030704
DTITLE=Terry Steeves - Terry Steeves
DYEAR=1998
DGENRE=Country
TTITLE0=Yours
TTITLE1=New State of Mind
TTITLE2=You've Got a Friend in Love
TTITLE3=Designated Lover
EXTD=
EXTT0=
EXTT1=
EXTT2=
EXTT3=
PLAYORDER=
